# 3ds Max Wavefront OBJ Exporter v0.97b - (c)2007 guruware
# File Created: 12.11.2019 18:39:22

mtllib cabin.mtl

#
# object Box001
#

v  -5.0000 0.0000 5.0000
v  -5.0000 0.0000 -5.0000
v  5.0000 0.0000 -5.0000
v  5.0000 0.0000 5.0000
v  0.0000 3.5112 0.0734
v  0.0000 3.5112 -3.6594
v  -5.0000 3.5112 -3.6594
v  0.0000 3.5112 3.8063
v  -5.0000 3.5112 3.8063
v  5.0000 3.5112 3.8063
v  5.0000 3.5112 -3.6594
v  5.0000 3.5112 0.0734
v  5.0000 8.0305 3.8063
v  5.0000 8.0305 0.0734
v  0.0000 8.0305 0.0734
v  0.0000 8.0305 3.8063
# 16 vertices

vn 0.0000 -1.0000 -0.0000
vn 0.0000 1.0000 -0.0000
vn 0.0000 0.3219 0.9468
vn 1.0000 0.0000 -0.0000
vn 0.0000 0.3567 -0.9342
vn -1.0000 0.0000 -0.0000
vn 0.0000 0.0000 -1.0000
vn 0.0000 0.0000 1.0000
# 8 vertex normals

vt 1.0000 0.0000 0.0000
vt 1.0000 1.0000 0.0000
vt 0.0000 1.0000 0.0000
vt 0.0000 0.0000 0.0000
vt 0.5000 0.5000 0.0000
vt 0.5000 1.0000 0.0000
vt 0.5000 0.0000 0.0000
vt 1.0000 0.5000 0.0000
# 8 texture coords

o Box001
g Box001
usemtl wire_057008136
s 2
f 1/1/1 2/2/1 3/3/1 
f 3/3/1 4/4/1 1/1/1 
s 4
f 5/5/2 6/6/2 7/3/2 
f 8/7/2 5/5/2 7/3/2 
f 9/4/2 8/7/2 7/3/2 
s 8
f 1/4/3 4/1/3 10/2/3 
f 1/4/3 10/2/3 8/6/3 
f 1/4/3 8/6/3 9/3/3 
s 16
f 4/4/4 3/1/4 11/2/4 
f 4/4/4 11/2/4 12/6/4 
f 4/4/4 12/6/4 10/3/4 
s 32
f 3/4/5 2/1/5 7/2/5 
f 3/4/5 7/2/5 6/6/5 
f 3/4/5 6/6/5 11/3/5 
s 64
f 2/4/6 1/1/6 9/2/6 
f 9/2/6 7/3/6 2/4/6 
s 4
f 13/1/2 14/8/2 15/5/2 
f 15/5/2 16/7/2 13/1/2 
f 11/2/2 6/6/2 5/5/2 
f 5/5/2 12/8/2 11/2/2 
s off
f 10/1/4 12/8/4 14/8/4 
f 14/8/4 13/1/4 10/1/4 
f 12/8/7 5/5/7 15/5/7 
f 15/5/7 14/8/7 12/8/7 
f 5/5/6 8/7/6 16/7/6 
f 16/7/6 15/5/6 5/5/6 
f 8/7/8 10/1/8 13/1/8 
f 13/1/8 16/7/8 8/7/8 
# 28 faces

